<svg xmlns="http://www.w3.org/2000/svg" viewBox="0 0 64 64" fill="none" stroke="currentColor" stroke-width="2" stroke-linecap="round" stroke-linejoin="round" aria-hidden="true">
  <!-- Water droplet entering at top -->
  <path d="M32 6 L32 14" />
  <path d="M32 14 C32 14 28 18 28 20 C28 22 30 24 32 24 C34 24 36 22 36 20 C36 18 32 14 32 14 Z" />
  
  <!-- Three-layer filter stack -->
  <line x1="14" y1="28" x2="50" y2="28" />
  <line x1="16" y1="34" x2="48" y2="34" />
  <line x1="18" y1="40" x2="46" y2="40" />
  
  <!-- Filter housing (funnel shape) -->
  <path d="M12 26 L12 30 L20 46 L44 46 L52 30 L52 26" />
  
  <!-- Clean droplet exiting at bottom -->
  <path d="M32 46 L32 52" />
  <path d="M32 52 C32 52 29 55 29 57 C29 58.5 30.5 60 32 60 C33.5 60 35 58.5 35 57 C35 55 32 52 32 52 Z" />
</svg>
